<?xml version="1.0" encoding="UTF-8" standalone="no"?>
<!DOCTYPE svg PUBLIC "-//W3C//DTD SVG 1.1//EN"
 "http://www.w3.org/Graphics/SVG/1.1/DTD/svg11.dtd">
<!-- Generated by graphviz version 2.40.1 (20161225.0304)
 -->
<!-- Title: dependencies Pages: 1 -->
<svg width="526pt" height="284pt"
 viewBox="0.00 0.00 526.00 284.00" xmlns="http://www.w3.org/2000/svg" xmlns:xlink="http://www.w3.org/1999/xlink">
<g id="graph0" class="graph" transform="scale(1 1) rotate(0) translate(4 280)">
<title>dependencies</title>
<polygon fill="#ffffff" stroke="transparent" points="-4,4 -4,-280 522,-280 522,4 -4,4"/>
<text text-anchor="start" x="238.0091" y="-42.4" font-family="sans-serif" font-weight="bold" font-size="14.00" fill="#000000">Legend</text>
<polygon fill="#ffffb3" stroke="transparent" points="25,-10 25,-30 45,-30 45,-10 25,-10"/>
<text text-anchor="start" x="48.629" y="-15.4" font-family="sans-serif" font-size="14.00" fill="#000000"> &#160;Declarations</text>
<polygon fill="#8dd3c7" stroke="transparent" points="138,-10 138,-30 158,-30 158,-10 138,-10"/>
<text text-anchor="start" x="161.7251" y="-15.4" font-family="sans-serif" font-size="14.00" fill="#000000"> &#160;Module</text>
<polygon fill="#80b1d3" stroke="transparent" points="224,-10 224,-30 244,-30 244,-10 224,-10"/>
<text text-anchor="start" x="247.7812" y="-15.4" font-family="sans-serif" font-size="14.00" fill="#000000"> &#160;Bootstrap</text>
<polygon fill="#fdb462" stroke="transparent" points="321,-10 321,-30 341,-30 341,-10 321,-10"/>
<text text-anchor="start" x="344.6732" y="-15.4" font-family="sans-serif" font-size="14.00" fill="#000000"> &#160;Providers</text>
<polygon fill="#fb8072" stroke="transparent" points="417,-10 417,-30 437,-30 437,-10 417,-10"/>
<text text-anchor="start" x="440.7258" y="-15.4" font-family="sans-serif" font-size="14.00" fill="#000000"> &#160;Exports</text>
<g id="clust1" class="cluster">
<title>cluster_Ng2WeatherIconsModule</title>
<polygon fill="none" stroke="#000000" stroke-dasharray="1,5" points="8,-70 8,-268 510,-268 510,-70 8,-70"/>
</g>
<g id="clust2" class="cluster">
<title>cluster_Ng2WeatherIconsModule_declarations</title>
<polygon fill="none" stroke="#000000" points="152,-78 152,-130 502,-130 502,-78 152,-78"/>
</g>
<g id="clust5" class="cluster">
<title>cluster_Ng2WeatherIconsModule_imports</title>
<polygon fill="none" stroke="#000000" points="16,-78 16,-130 144,-130 144,-78 16,-78"/>
</g>
<g id="clust6" class="cluster">
<title>cluster_Ng2WeatherIconsModule_exports</title>
<polygon fill="none" stroke="#000000" points="81,-208 81,-260 438,-260 438,-208 81,-208"/>
</g>
<!-- WeatherIconComponent -->
<g id="node1" class="node">
<title>WeatherIconComponent</title>
<polygon fill="#ffffb3" stroke="#000000" points="493.6177,-122 340.3823,-122 340.3823,-86 493.6177,-86 493.6177,-122"/>
<text text-anchor="middle" x="417" y="-99.8" font-family="Times,serif" font-size="14.00" fill="#000000">WeatherIconComponent</text>
</g>
<!-- Ng2WeatherIconsModule -->
<g id="node3" class="node">
<title>Ng2WeatherIconsModule</title>
<polygon fill="#8dd3c7" stroke="#000000" points="321.8863,-187 318.8863,-191 297.8863,-191 294.8863,-187 160.1137,-187 160.1137,-151 321.8863,-151 321.8863,-187"/>
<text text-anchor="middle" x="241" y="-164.8" font-family="Times,serif" font-size="14.00" fill="#000000">Ng2WeatherIconsModule</text>
</g>
<!-- WeatherIconComponent&#45;&gt;Ng2WeatherIconsModule -->
<g id="edge1" class="edge">
<title>WeatherIconComponent&#45;&gt;Ng2WeatherIconsModule</title>
<path fill="none" stroke="#000000" d="M384.875,-122.1061C384.875,-141.3391 384.875,-169 384.875,-169 384.875,-169 331.7693,-169 331.7693,-169"/>
<polygon fill="#000000" stroke="#000000" points="331.7694,-165.5001 321.7693,-169 331.7693,-172.5001 331.7694,-165.5001"/>
</g>
<!-- WeatherNameToIconPipe -->
<g id="node2" class="node">
<title>WeatherNameToIconPipe</title>
<polygon fill="#ffffb3" stroke="#000000" points="322.1517,-122 159.8483,-122 159.8483,-86 322.1517,-86 322.1517,-122"/>
<text text-anchor="middle" x="241" y="-99.8" font-family="Times,serif" font-size="14.00" fill="#000000">WeatherNameToIconPipe</text>
</g>
<!-- WeatherNameToIconPipe&#45;&gt;Ng2WeatherIconsModule -->
<g id="edge2" class="edge">
<title>WeatherNameToIconPipe&#45;&gt;Ng2WeatherIconsModule</title>
<path fill="none" stroke="#000000" d="M241,-122.1061C241,-122.1061 241,-140.991 241,-140.991"/>
<polygon fill="#000000" stroke="#000000" points="237.5001,-140.9909 241,-150.991 244.5001,-140.991 237.5001,-140.9909"/>
</g>
<!-- WeatherIconComponent  -->
<g id="node5" class="node">
<title>WeatherIconComponent </title>
<polygon fill="#fb8072" stroke="#000000" points="429.6172,-252 272.3828,-252 272.3828,-216 429.6172,-216 429.6172,-252"/>
<text text-anchor="middle" x="351" y="-229.8" font-family="Times,serif" font-size="14.00" fill="#000000">WeatherIconComponent </text>
</g>
<!-- Ng2WeatherIconsModule&#45;&gt;WeatherIconComponent  -->
<g id="edge4" class="edge">
<title>Ng2WeatherIconsModule&#45;&gt;WeatherIconComponent </title>
<path fill="none" stroke="#000000" stroke-dasharray="5,2" d="M297.0671,-187.1061C297.0671,-187.1061 297.0671,-205.991 297.0671,-205.991"/>
<polygon fill="#000000" stroke="#000000" points="293.5672,-205.9909 297.0671,-215.991 300.5672,-205.991 293.5672,-205.9909"/>
</g>
<!-- WeatherNameToIconPipe  -->
<g id="node6" class="node">
<title>WeatherNameToIconPipe </title>
<polygon fill="#fb8072" stroke="#000000" points="254.652,-252 89.348,-252 89.348,-216 254.652,-216 254.652,-252"/>
<text text-anchor="middle" x="172" y="-229.8" font-family="Times,serif" font-size="14.00" fill="#000000">WeatherNameToIconPipe </text>
</g>
<!-- Ng2WeatherIconsModule&#45;&gt;WeatherNameToIconPipe  -->
<g id="edge5" class="edge">
<title>Ng2WeatherIconsModule&#45;&gt;WeatherNameToIconPipe </title>
<path fill="none" stroke="#000000" stroke-dasharray="5,2" d="M207.5664,-187.1061C207.5664,-187.1061 207.5664,-205.991 207.5664,-205.991"/>
<polygon fill="#000000" stroke="#000000" points="204.0665,-205.9909 207.5664,-215.991 211.0665,-205.991 204.0665,-205.9909"/>
</g>
<!-- CommonModule -->
<g id="node4" class="node">
<title>CommonModule</title>
<polygon fill="#8dd3c7" stroke="#000000" points="135.6681,-122 132.6681,-126 111.6681,-126 108.6681,-122 24.3319,-122 24.3319,-86 135.6681,-86 135.6681,-122"/>
<text text-anchor="middle" x="80" y="-99.8" font-family="Times,serif" font-size="14.00" fill="#000000">CommonModule</text>
</g>
<!-- CommonModule&#45;&gt;Ng2WeatherIconsModule -->
<g id="edge3" class="edge">
<title>CommonModule&#45;&gt;Ng2WeatherIconsModule</title>
<path fill="none" stroke="#000000" d="M112.504,-122.1061C112.504,-141.3391 112.504,-169 112.504,-169 112.504,-169 149.9861,-169 149.9861,-169"/>
<polygon fill="#000000" stroke="#000000" points="149.9861,-172.5001 159.9861,-169 149.9861,-165.5001 149.9861,-172.5001"/>
</g>
</g>
</svg>
