<?xml version="1.0" encoding="UTF-8" standalone="no"?>
<!DOCTYPE svg PUBLIC "-//W3C//DTD SVG 1.1//EN"
 "http://www.w3.org/Graphics/SVG/1.1/DTD/svg11.dtd">
<!-- Generated by graphviz version 2.40.1 (20161225.0304)
 -->
<!-- Title: dependencies Pages: 1 -->
<svg width="504pt" height="284pt"
 viewBox="0.00 0.00 504.00 284.00" xmlns="http://www.w3.org/2000/svg" xmlns:xlink="http://www.w3.org/1999/xlink">
<g id="graph0" class="graph" transform="scale(1 1) rotate(0) translate(4 280)">
<title>dependencies</title>
<polygon fill="#ffffff" stroke="transparent" points="-4,4 -4,-280 500,-280 500,4 -4,4"/>
<text text-anchor="start" x="227.0091" y="-42.4" font-family="sans-serif" font-weight="bold" font-size="14.00" fill="#000000">Legend</text>
<polygon fill="#ffffb3" stroke="transparent" points="14,-10 14,-30 34,-30 34,-10 14,-10"/>
<text text-anchor="start" x="37.629" y="-15.4" font-family="sans-serif" font-size="14.00" fill="#000000"> &#160;Declarations</text>
<polygon fill="#8dd3c7" stroke="transparent" points="127,-10 127,-30 147,-30 147,-10 127,-10"/>
<text text-anchor="start" x="150.7251" y="-15.4" font-family="sans-serif" font-size="14.00" fill="#000000"> &#160;Module</text>
<polygon fill="#80b1d3" stroke="transparent" points="213,-10 213,-30 233,-30 233,-10 213,-10"/>
<text text-anchor="start" x="236.7812" y="-15.4" font-family="sans-serif" font-size="14.00" fill="#000000"> &#160;Bootstrap</text>
<polygon fill="#fdb462" stroke="transparent" points="310,-10 310,-30 330,-30 330,-10 310,-10"/>
<text text-anchor="start" x="333.6732" y="-15.4" font-family="sans-serif" font-size="14.00" fill="#000000"> &#160;Providers</text>
<polygon fill="#fb8072" stroke="transparent" points="406,-10 406,-30 426,-30 426,-10 406,-10"/>
<text text-anchor="start" x="429.7258" y="-15.4" font-family="sans-serif" font-size="14.00" fill="#000000"> &#160;Exports</text>
<g id="clust1" class="cluster">
<title>cluster_Ng2WeatherIconsModule</title>
<polygon fill="none" stroke="#000000" stroke-dasharray="1,5" points="61.5,-70 61.5,-268 434.5,-268 434.5,-70 61.5,-70"/>
</g>
<g id="clust3" class="cluster">
<title>cluster_Ng2WeatherIconsModule_imports</title>
<polygon fill="none" stroke="#000000" points="185.5,-78 185.5,-130 313.5,-130 313.5,-78 185.5,-78"/>
</g>
<g id="clust4" class="cluster">
<title>cluster_Ng2WeatherIconsModule_exports</title>
<polygon fill="none" stroke="#000000" points="69.5,-208 69.5,-260 426.5,-260 426.5,-208 69.5,-208"/>
</g>
<!-- CommonModule -->
<g id="node1" class="node">
<title>CommonModule</title>
<polygon fill="#8dd3c7" stroke="#000000" points="305.1681,-122 302.1681,-126 281.1681,-126 278.1681,-122 193.8319,-122 193.8319,-86 305.1681,-86 305.1681,-122"/>
<text text-anchor="middle" x="249.5" y="-99.8" font-family="Times,serif" font-size="14.00" fill="#000000">CommonModule</text>
</g>
<!-- Ng2WeatherIconsModule -->
<g id="node2" class="node">
<title>Ng2WeatherIconsModule</title>
<polygon fill="#8dd3c7" stroke="#000000" points="330.3863,-187 327.3863,-191 306.3863,-191 303.3863,-187 168.6137,-187 168.6137,-151 330.3863,-151 330.3863,-187"/>
<text text-anchor="middle" x="249.5" y="-164.8" font-family="Times,serif" font-size="14.00" fill="#000000">Ng2WeatherIconsModule</text>
</g>
<!-- CommonModule&#45;&gt;Ng2WeatherIconsModule -->
<g id="edge1" class="edge">
<title>CommonModule&#45;&gt;Ng2WeatherIconsModule</title>
<path fill="none" stroke="#000000" d="M249.5,-122.1061C249.5,-122.1061 249.5,-140.991 249.5,-140.991"/>
<polygon fill="#000000" stroke="#000000" points="246.0001,-140.9909 249.5,-150.991 253.0001,-140.991 246.0001,-140.9909"/>
</g>
<!-- WeatherIconComponent  -->
<g id="node3" class="node">
<title>WeatherIconComponent </title>
<polygon fill="#fb8072" stroke="#000000" points="418.1172,-252 260.8828,-252 260.8828,-216 418.1172,-216 418.1172,-252"/>
<text text-anchor="middle" x="339.5" y="-229.8" font-family="Times,serif" font-size="14.00" fill="#000000">WeatherIconComponent </text>
</g>
<!-- Ng2WeatherIconsModule&#45;&gt;WeatherIconComponent  -->
<g id="edge2" class="edge">
<title>Ng2WeatherIconsModule&#45;&gt;WeatherIconComponent </title>
<path fill="none" stroke="#000000" stroke-dasharray="5,2" d="M295.5671,-187.1061C295.5671,-187.1061 295.5671,-205.991 295.5671,-205.991"/>
<polygon fill="#000000" stroke="#000000" points="292.0672,-205.9909 295.5671,-215.991 299.0672,-205.991 292.0672,-205.9909"/>
</g>
<!-- WeatherNameToIconPipe  -->
<g id="node4" class="node">
<title>WeatherNameToIconPipe </title>
<polygon fill="#fb8072" stroke="#000000" points="243.152,-252 77.848,-252 77.848,-216 243.152,-216 243.152,-252"/>
<text text-anchor="middle" x="160.5" y="-229.8" font-family="Times,serif" font-size="14.00" fill="#000000">WeatherNameToIconPipe </text>
</g>
<!-- Ng2WeatherIconsModule&#45;&gt;WeatherNameToIconPipe  -->
<g id="edge3" class="edge">
<title>Ng2WeatherIconsModule&#45;&gt;WeatherNameToIconPipe </title>
<path fill="none" stroke="#000000" stroke-dasharray="5,2" d="M206.0664,-187.1061C206.0664,-187.1061 206.0664,-205.991 206.0664,-205.991"/>
<polygon fill="#000000" stroke="#000000" points="202.5665,-205.9909 206.0664,-215.991 209.5665,-205.991 202.5665,-205.9909"/>
</g>
</g>
</svg>
